<svg version="1.1" id="Layer_1" xmlns="http://www.w3.org/2000/svg" xmlns:xlink="http://www.w3.org/1999/xlink" x="0px" y="0px"
	 width="100%" viewBox="0 0 903 436" enable-background="new 0 0 903 436" xml:space="preserve">
<path fill="#03050D" opacity="1.000000" stroke="none" 
	d="
M549.000000,437.000000 
	C366.000031,437.000000 183.500061,437.000000 1.000073,437.000000 
	C1.000049,291.666718 1.000049,146.333450 1.000025,1.000132 
	C301.999878,1.000088 602.999756,1.000088 903.999756,1.000044 
	C903.999817,146.333191 903.999817,291.666382 903.999878,436.999786 
	C785.833313,437.000000 667.666687,437.000000 549.000000,437.000000 
M691.646606,129.455673 
	C694.709167,129.937103 697.771790,130.418533 701.160095,130.951172 
	C703.351807,121.610992 705.455505,112.645691 707.729919,102.952705 
	C701.683411,101.987419 696.331787,101.133064 690.063354,100.097054 
	C684.681274,100.157555 679.299255,100.218056 673.058044,100.241013 
	C669.706848,101.165672 666.355713,102.090340 662.292419,103.056473 
	C659.856079,104.351234 657.419800,105.645996 654.311401,107.099617 
	C651.092102,110.157867 647.466187,112.893631 644.734192,116.338371 
	C638.086548,124.720543 637.309509,134.836395 637.099182,145.058426 
	C637.043823,147.750305 636.377563,150.429611 635.065430,152.978058 
	C629.525940,152.978058 623.986450,152.978058 618.460327,152.978058 
	C618.460327,162.645309 618.460327,171.510147 618.460327,180.744965 
	C624.503113,180.744965 630.244080,180.744965 636.708496,181.278687 
	C636.855286,183.255127 637.128357,185.231476 637.130066,187.208038 
	C637.156494,218.355545 637.148132,249.503052 637.147705,280.650574 
	C637.147644,282.605133 637.147705,284.559692 637.147705,286.943512 
	C643.464600,286.943512 649.231567,286.943512 655.874695,287.110626 
	C658.249023,287.054413 660.623352,286.998199 663.913452,287.109009 
	C667.191956,287.109009 670.470398,287.109009 674.160278,287.109009 
	C674.276489,284.481995 674.449463,282.378296 674.450684,280.274536 
	C674.468262,249.047852 674.436340,217.821075 674.527649,186.594635 
	C674.533325,184.650101 675.464539,182.708267 676.895203,180.924072 
	C684.833679,180.924072 692.772095,180.924072 700.791016,180.924072 
	C700.791016,171.330948 700.791016,162.294922 700.791016,153.091675 
	C692.244263,153.091675 684.114075,153.091675 675.300598,152.746582 
	C675.579956,146.848297 675.859314,140.949997 676.689636,134.661621 
	C680.067261,129.263962 685.853638,130.078201 691.646606,129.455673 
M761.779358,336.007446 
	C772.103821,333.709198 780.776733,328.799591 787.570129,319.658508 
	C790.276489,314.918335 793.715088,310.445618 795.561462,305.391266 
	C803.245178,284.357819 810.449341,263.149170 818.196350,241.359741 
	C828.422607,212.245041 838.648804,183.130325 849.173584,153.165527 
	C837.453430,153.165527 826.716370,153.165527 815.149231,153.075699 
	C812.550903,153.069580 809.958252,152.403091 808.896362,156.200958 
	C800.423950,186.502136 791.789001,216.757874 782.939941,247.694412 
	C782.351074,248.766159 781.762268,249.837891 780.638977,251.882355 
	C779.549927,248.403412 778.726746,245.959930 778.018860,243.483475 
	C772.143127,222.925598 766.288574,202.361649 760.271057,181.019028 
	C758.005981,172.844696 755.821655,164.646255 753.394287,156.520401 
	C753.000854,155.203293 751.547546,153.231888 750.552856,153.213074 
	C738.453918,152.984192 726.349182,153.064468 713.581604,153.064468 
	C714.326416,155.558167 714.811584,157.455399 715.455322,159.297150 
	C724.893127,186.297073 734.327332,213.298309 743.817810,240.279724 
	C747.783264,251.553223 751.879028,262.780853 755.946716,274.804321 
	C756.490906,276.538116 756.961548,278.299164 757.592407,280.000793 
	C759.887207,286.190369 762.813477,292.324554 758.281921,299.368988 
	C752.158630,311.016357 741.977478,308.327271 731.876343,306.295135 
	C729.312073,314.744293 726.745422,322.795410 724.545837,330.945618 
	C724.259827,332.005493 725.608582,334.480316 726.633667,334.770935 
	C737.955383,337.981018 749.419495,339.033661 761.779358,336.007446 
M125.504227,194.015076 
	C146.142151,223.890625 166.814102,253.742813 187.359772,283.681671 
	C189.198547,286.361115 191.209717,287.315796 194.368301,287.229797 
	C201.694565,287.030334 209.046524,286.867279 216.355911,287.271210 
	C221.333725,287.546265 222.858795,286.139252 222.840637,280.948242 
	C222.645920,225.294678 222.722244,169.640167 222.706406,113.985924 
	C222.705902,112.201561 222.514191,110.417244 222.404800,108.514557 
	C209.755249,108.514557 197.558228,108.514557 184.636978,108.514557 
	C184.636978,146.091232 184.636978,183.227112 184.636978,220.362976 
	C182.719482,219.432175 181.762115,218.327667 180.939713,217.130463 
	C157.832672,183.493378 134.569061,149.961349 111.800255,116.096695 
	C107.691948,109.986298 103.512589,107.207489 96.100304,107.911118 
	C88.569771,108.625969 80.918503,108.069016 72.834412,108.069016 
	C72.834412,111.023514 72.834404,113.160576 72.834404,115.297630 
	C72.834373,155.788605 72.834320,196.279572 72.834351,236.770538 
	C72.834358,251.433929 72.828979,266.097321 72.837280,280.760712 
	C72.840897,287.151794 72.853722,287.159393 79.462234,287.165344 
	C87.960327,287.173004 96.458534,287.187164 104.956467,287.150146 
	C106.709869,287.142517 108.462341,286.922333 111.023445,286.743744 
	C111.023445,249.303879 111.023445,212.349045 111.023445,175.394211 
	C111.456596,175.292526 111.889748,175.190842 112.322906,175.089172 
	C116.580917,181.200195 120.838936,187.311234 125.504227,194.015076 
M291.536285,286.000671 
	C291.637512,284.010223 291.824524,282.019867 291.826691,280.029327 
	C291.848541,259.867767 291.984406,239.704407 291.735840,219.545914 
	C291.675934,214.686493 292.710724,212.939728 298.009033,213.029785 
	C317.998199,213.369598 337.996582,213.165985 357.991516,213.165817 
	C359.961853,213.165802 361.932190,213.165817 364.293365,213.165817 
	C364.293365,202.593933 364.293365,192.559647 364.293365,181.998276 
	C361.902985,181.998276 359.934509,181.998306 357.966064,181.998260 
	C337.804504,181.997910 317.641907,181.889709 297.482239,182.084534 
	C293.250732,182.125443 291.592712,181.173737 291.735748,176.583633 
	C292.067841,165.930038 292.062286,155.252258 291.737213,144.598221 
	C291.598358,140.046936 293.187164,139.040955 297.457458,139.076675 
	C320.283386,139.267639 343.111816,139.166153 365.939362,139.165817 
	C367.901855,139.165787 369.864349,139.165817 372.070374,139.165817 
	C372.070374,128.538452 372.070374,118.505646 372.070374,108.478271 
	C332.527161,108.478271 293.464508,108.478271 254.289474,108.478271 
	C254.289474,168.111115 254.289474,227.335358 254.289474,286.709900 
	C266.748505,286.709900 278.846344,286.709900 291.536285,286.000671 
M538.282471,131.431030 
	C538.282227,125.768562 537.998840,120.087578 538.367615,114.449257 
	C538.685852,109.584320 537.388062,107.911453 532.093689,107.938927 
	C487.127838,108.172340 442.160248,108.072357 397.193207,108.072350 
	C395.412781,108.072350 393.632324,108.072350 391.163788,108.072350 
	C391.163788,116.470245 391.160828,124.246986 391.164703,132.023727 
	C391.168304,139.153564 391.171539,139.160172 398.071686,139.162567 
	C412.061432,139.167404 426.051178,139.155411 440.040894,139.175629 
	C441.826416,139.178207 443.611725,139.331970 446.145081,139.450760 
	C446.145081,188.824783 446.145081,237.814102 446.145081,286.681549 
	C447.401093,286.914276 447.889923,287.082123 448.379486,287.084167 
	C457.538757,287.122528 466.698181,287.150970 475.857544,287.160950 
	C483.433350,287.169220 483.441742,287.157410 483.442352,279.619476 
	C483.445801,234.652420 483.498444,189.685196 483.360779,144.718567 
	C483.347443,140.368546 484.554718,138.980209 488.996155,139.064865 
	C503.147308,139.334579 517.306824,139.168472 531.463135,139.162094 
	C538.220764,139.159058 538.220764,139.150238 538.282471,131.431030 
M561.927917,167.505188 
	C561.927917,207.252579 561.927917,246.999969 561.927917,286.817017 
	C574.594910,286.817017 586.643738,286.817017 598.746155,286.817017 
	C598.746155,242.088409 598.746155,197.711716 598.746155,153.263397 
	C586.377319,153.263397 574.323608,153.263397 561.927979,153.263397 
	C561.927979,157.899734 561.927979,162.204193 561.927917,167.505188 
M567.213257,102.664467 
	C566.738403,103.130730 566.245789,103.580360 565.791382,104.065758 
	C559.488586,110.798340 558.744568,120.131958 563.930237,127.333282 
	C569.285950,134.770660 580.449707,137.670990 589.057739,133.861481 
	C597.570618,130.094086 602.171204,121.371513 600.200684,112.734772 
	C597.025085,98.816193 580.721130,93.516670 567.213257,102.664467 
z"/>
<path fill="#2541A7" opacity="1.000000" stroke="none" 
	d="
M125.300583,193.718674 
	C120.838936,187.311234 116.580917,181.200195 112.322906,175.089172 
	C111.889748,175.190842 111.456596,175.292526 111.023445,175.394211 
	C111.023445,212.349045 111.023445,249.303879 111.023445,286.743744 
	C108.462341,286.922333 106.709869,287.142517 104.956467,287.150146 
	C96.458534,287.187164 87.960327,287.173004 79.462234,287.165344 
	C72.853722,287.159393 72.840897,287.151794 72.837280,280.760712 
	C72.828979,266.097321 72.834358,251.433929 72.834351,236.770538 
	C72.834320,196.279572 72.834373,155.788605 72.834404,115.297630 
	C72.834404,113.160576 72.834412,111.023514 72.834412,108.069016 
	C80.918503,108.069016 88.569771,108.625969 96.100304,107.911118 
	C103.512589,107.207489 107.691948,109.986298 111.800255,116.096695 
	C134.569061,149.961349 157.832672,183.493378 180.939713,217.130463 
	C181.762115,218.327667 182.719482,219.432175 184.636978,220.362976 
	C184.636978,183.227112 184.636978,146.091232 184.636978,108.514557 
	C197.558228,108.514557 209.755249,108.514557 222.404800,108.514557 
	C222.514191,110.417244 222.705902,112.201561 222.706406,113.985924 
	C222.722244,169.640167 222.645920,225.294678 222.840637,280.948242 
	C222.858795,286.139252 221.333725,287.546265 216.355911,287.271210 
	C209.046524,286.867279 201.694565,287.030334 194.368301,287.229797 
	C191.209717,287.315796 189.198547,286.361115 187.359772,283.681671 
	C166.814102,253.742813 146.142151,223.890625 125.300583,193.718674 
z"/>
<path fill="#2542A7" opacity="1.000000" stroke="none" 
	d="
M291.240234,286.355286 
	C278.846344,286.709900 266.748505,286.709900 254.289474,286.709900 
	C254.289474,227.335358 254.289474,168.111115 254.289474,108.478271 
	C293.464508,108.478271 332.527161,108.478271 372.070374,108.478271 
	C372.070374,118.505646 372.070374,128.538452 372.070374,139.165817 
	C369.864349,139.165817 367.901855,139.165787 365.939362,139.165817 
	C343.111816,139.166153 320.283386,139.267639 297.457458,139.076675 
	C293.187164,139.040955 291.598358,140.046936 291.737213,144.598221 
	C292.062286,155.252258 292.067841,165.930038 291.735748,176.583633 
	C291.592712,181.173737 293.250732,182.125443 297.482239,182.084534 
	C317.641907,181.889709 337.804504,181.997910 357.966064,181.998260 
	C359.934509,181.998306 361.902985,181.998276 364.293365,181.998276 
	C364.293365,192.559647 364.293365,202.593933 364.293365,213.165817 
	C361.932190,213.165817 359.961853,213.165802 357.991516,213.165817 
	C337.996582,213.165985 317.998199,213.369598 298.009033,213.029785 
	C292.710724,212.939728 291.675934,214.686493 291.735840,219.545914 
	C291.984406,239.704407 291.848541,259.867767 291.826691,280.029327 
	C291.824524,282.019867 291.637512,284.010223 291.240234,286.355286 
z"/>
<path fill="#2542A8" opacity="1.000000" stroke="none" 
	d="
M538.282593,131.921204 
	C538.220764,139.150238 538.220764,139.159058 531.463135,139.162094 
	C517.306824,139.168472 503.147308,139.334579 488.996155,139.064865 
	C484.554718,138.980209 483.347443,140.368546 483.360779,144.718567 
	C483.498444,189.685196 483.445801,234.652420 483.442352,279.619476 
	C483.441742,287.157410 483.433350,287.169220 475.857544,287.160950 
	C466.698181,287.150970 457.538757,287.122528 448.379486,287.084167 
	C447.889923,287.082123 447.401093,286.914276 446.145081,286.681549 
	C446.145081,237.814102 446.145081,188.824783 446.145081,139.450760 
	C443.611725,139.331970 441.826416,139.178207 440.040894,139.175629 
	C426.051178,139.155411 412.061432,139.167404 398.071686,139.162567 
	C391.171539,139.160172 391.168304,139.153564 391.164703,132.023727 
	C391.160828,124.246986 391.163788,116.470245 391.163788,108.072350 
	C393.632324,108.072350 395.412781,108.072350 397.193207,108.072350 
	C442.160248,108.072357 487.127838,108.172340 532.093689,107.938927 
	C537.388062,107.911453 538.685852,109.584320 538.367615,114.449257 
	C537.998840,120.087578 538.282227,125.768562 538.282593,131.921204 
z"/>
<path fill="#6730F4" opacity="1.000000" stroke="none" 
	d="
M561.927979,167.006912 
	C561.927979,162.204193 561.927979,157.899734 561.927979,153.263397 
	C574.323608,153.263397 586.377319,153.263397 598.746155,153.263397 
	C598.746155,197.711716 598.746155,242.088409 598.746155,286.817017 
	C586.643738,286.817017 574.594910,286.817017 561.927917,286.817017 
	C561.927917,246.999969 561.927917,207.252579 561.927979,167.006912 
z"/>
<path fill="#552DD4" opacity="1.000000" stroke="none" 
	d="
M654.998535,286.943512 
	C649.231567,286.943512 643.464600,286.943512 637.147705,286.943512 
	C637.147705,284.559692 637.147644,282.605133 637.147705,280.650574 
	C637.148132,249.503052 637.156494,218.355545 637.130066,187.208038 
	C637.128357,185.231476 636.855286,183.255127 636.347778,180.559540 
	C635.988708,170.931808 635.990234,162.023254 635.991821,153.114685 
	C636.377563,150.429611 637.043823,147.750305 637.099182,145.058426 
	C637.309509,134.836395 638.086548,124.720543 644.734192,116.338371 
	C647.466187,112.893631 651.092102,110.157867 654.740479,107.431488 
	C655.446289,118.348145 655.970337,128.933395 655.950134,139.517609 
	C655.902222,164.604935 655.467468,189.691635 655.437622,214.778870 
	C655.416321,232.719574 655.898010,250.660492 655.944214,268.601868 
	C655.959961,274.714874 655.332275,280.829590 654.998535,286.943512 
z"/>
<path fill="#2F2389" opacity="1.000000" stroke="none" 
	d="
M817.829407,242.004807 
	C810.449341,263.149170 803.245178,284.357819 795.561462,305.391266 
	C793.715088,310.445618 790.276489,314.918335 787.196594,319.442139 
	C786.548767,316.426849 786.047180,313.628815 786.036865,310.828918 
	C785.966309,291.744537 786.034424,272.659637 785.954956,253.575348 
	C785.944824,251.134415 787.041687,247.969620 783.203918,247.027527 
	C791.789001,216.757874 800.423950,186.502136 808.896362,156.200958 
	C809.958252,152.403091 812.550903,153.069580 815.568542,153.577744 
	C815.992065,181.105179 815.952332,208.130768 816.079712,235.155579 
	C816.090454,237.441345 817.219727,239.721848 817.829407,242.004807 
z"/>
<path fill="#362597" opacity="1.000000" stroke="none" 
	d="
M783.071899,247.360962 
	C787.041687,247.969620 785.944824,251.134415 785.954956,253.575348 
	C786.034424,272.659637 785.966309,291.744537 786.036865,310.828918 
	C786.047180,313.628815 786.548767,316.426849 786.920654,319.635620 
	C780.776733,328.799591 772.103821,333.709198 761.385742,335.517303 
	C760.993347,324.995819 761.116821,314.961731 760.893494,304.935394 
	C760.848328,302.906952 759.491699,300.907745 758.739624,298.895050 
	C762.813477,292.324554 759.887207,286.190369 757.592407,280.000793 
	C756.961548,278.299164 756.490906,276.538116 756.277649,274.290771 
	C757.293518,271.768860 758.539490,269.767365 758.563965,267.750977 
	C758.658325,259.996216 758.277039,252.237228 758.229675,244.478836 
	C758.152100,231.764038 758.169250,219.048416 758.199524,206.333267 
	C758.219177,198.093735 756.651001,189.700974 760.427612,181.799530 
	C766.288574,202.361649 772.143127,222.925598 778.018860,243.483475 
	C778.726746,245.959930 779.549927,248.403412 780.638977,251.882355 
	C781.762268,249.837891 782.351074,248.766159 783.071899,247.360962 
z"/>
<path fill="#3C26A4" opacity="1.000000" stroke="none" 
	d="
M760.349365,181.409271 
	C756.651001,189.700974 758.219177,198.093735 758.199524,206.333267 
	C758.169250,219.048416 758.152100,231.764038 758.229675,244.478836 
	C758.277039,252.237228 758.658325,259.996216 758.563965,267.750977 
	C758.539490,269.767365 757.293518,271.768860 756.262085,273.903259 
	C751.879028,262.780853 747.783264,251.553223 743.817810,240.279724 
	C734.327332,213.298309 724.893127,186.297073 715.455322,159.297150 
	C714.811584,157.455399 714.326416,155.558167 713.581604,153.064468 
	C726.349182,153.064468 738.453918,152.984192 750.552856,153.213074 
	C751.547546,153.231888 753.000854,155.203293 753.394287,156.520401 
	C755.821655,164.646255 758.005981,172.844696 760.349365,181.409271 
z"/>
<path fill="#4F2CCB" opacity="1.000000" stroke="none" 
	d="
M676.138672,135.051712 
	C675.859314,140.949997 675.579956,146.848297 675.564941,153.295471 
	C675.874573,162.817963 675.919922,171.791580 675.965210,180.765167 
	C675.464539,182.708267 674.533325,184.650101 674.527649,186.594635 
	C674.436340,217.821075 674.468262,249.047852 674.450684,280.274536 
	C674.449463,282.378296 674.276489,284.481995 674.160278,287.109009 
	C670.470398,287.109009 667.191956,287.109009 663.456177,286.560638 
	C663.000793,225.013184 663.002625,164.014099 663.004517,103.015015 
	C666.355713,102.090340 669.706848,101.165672 673.498535,100.777321 
	C673.961365,110.457687 673.854431,119.605255 674.102417,128.743179 
	C674.159973,130.862885 675.427795,132.949738 676.138672,135.051712 
z"/>
<path fill="#29207D" opacity="1.000000" stroke="none" 
	d="
M818.012878,241.682281 
	C817.219727,239.721848 816.090454,237.441345 816.079712,235.155579 
	C815.952332,208.130768 815.992065,181.105179 815.983582,153.622650 
	C826.716370,153.165527 837.453430,153.165527 849.173584,153.165527 
	C838.648804,183.130325 828.422607,212.245041 818.012878,241.682281 
z"/>
<path fill="#522CD0" opacity="1.000000" stroke="none" 
	d="
M662.648438,103.035744 
	C663.002625,164.014099 663.000793,225.013184 662.998291,286.477142 
	C660.623352,286.998199 658.249023,287.054413 655.436646,287.027069 
	C655.332275,280.829590 655.959961,274.714874 655.944214,268.601868 
	C655.898010,250.660492 655.416321,232.719574 655.437622,214.778870 
	C655.467468,189.691635 655.902222,164.604935 655.950134,139.517609 
	C655.970337,128.933395 655.446289,118.348145 655.076538,107.352066 
	C657.419800,105.645996 659.856079,104.351234 662.648438,103.035744 
z"/>
<path fill="#6630F1" opacity="1.000000" stroke="none" 
	d="
M567.486023,102.427063 
	C580.721130,93.516670 597.025085,98.816193 600.200684,112.734772 
	C602.171204,121.371513 597.570618,130.094086 589.057739,133.861481 
	C580.449707,137.670990 569.285950,134.770660 563.930237,127.333282 
	C558.744568,120.131958 559.488586,110.798340 565.791382,104.065758 
	C566.245789,103.580360 566.738403,103.130730 567.486023,102.427063 
z"/>
<path fill="#3B26A2" opacity="1.000000" stroke="none" 
	d="
M758.510742,299.132019 
	C759.491699,300.907745 760.848328,302.906952 760.893494,304.935394 
	C761.116821,314.961731 760.993347,324.995819 760.990479,335.493073 
	C749.419495,339.033661 737.955383,337.981018 726.633667,334.770935 
	C725.608582,334.480316 724.259827,332.005493 724.545837,330.945618 
	C726.745422,322.795410 729.312073,314.744293 731.876343,306.295135 
	C741.977478,308.327271 752.158630,311.016357 758.510742,299.132019 
z"/>
<path fill="#4528B4" opacity="1.000000" stroke="none" 
	d="
M676.430176,180.844635 
	C675.919922,171.791580 675.874573,162.817963 675.906555,153.468018 
	C684.114075,153.091675 692.244263,153.091675 700.791016,153.091675 
	C700.791016,162.294922 700.791016,171.330948 700.791016,180.924072 
	C692.772095,180.924072 684.833679,180.924072 676.430176,180.844635 
z"/>
<path fill="#4B2BC2" opacity="1.000000" stroke="none" 
	d="
M676.414185,134.856659 
	C675.427795,132.949738 674.159973,130.862885 674.102417,128.743179 
	C673.854431,119.605255 673.961365,110.457687 673.928101,100.796097 
	C679.299255,100.218056 684.681274,100.157555 690.524170,100.612747 
	C691.190796,103.257607 691.600159,105.390114 691.565308,107.515327 
	C691.447083,114.721443 691.171692,121.924988 690.956421,129.129517 
	C685.853638,130.078201 680.067261,129.263962 676.414185,134.856659 
z"/>
<path fill="#5B2DDF" opacity="1.000000" stroke="none" 
	d="
M635.528625,153.046371 
	C635.990234,162.023254 635.988708,170.931808 635.986084,180.292664 
	C630.244080,180.744965 624.503113,180.744965 618.460327,180.744965 
	C618.460327,171.510147 618.460327,162.645309 618.460327,152.978058 
	C623.986450,152.978058 629.525940,152.978058 635.528625,153.046371 
z"/>
<path fill="#4629B8" opacity="1.000000" stroke="none" 
	d="
M691.301514,129.292603 
	C691.171692,121.924988 691.447083,114.721443 691.565308,107.515327 
	C691.600159,105.390114 691.190796,103.257607 690.982544,100.703583 
	C696.331787,101.133064 701.683411,101.987419 707.729919,102.952705 
	C705.455505,112.645691 703.351807,121.610992 701.160095,130.951172 
	C697.771790,130.418533 694.709167,129.937103 691.301514,129.292603 
z"/>
</svg>